<?xml version="1.0" encoding="UTF-8" standalone="no"?>
<!-- Created with Inkscape (http://www.inkscape.org/) -->

<svg
   xmlns:dc="http://purl.org/dc/elements/1.1/"
   xmlns:cc="http://creativecommons.org/ns#"
   xmlns:rdf="http://www.w3.org/1999/02/22-rdf-syntax-ns#"
   xmlns:svg="http://www.w3.org/2000/svg"
   xmlns="http://www.w3.org/2000/svg"
   xmlns:xlink="http://www.w3.org/1999/xlink"
   xmlns:sodipodi="http://sodipodi.sourceforge.net/DTD/sodipodi-0.dtd"
   xmlns:inkscape="http://www.inkscape.org/namespaces/inkscape"
   width="128"
   height="128"
   id="svg2"
   version="1.1"
   inkscape:version="0.91 r13865"
   onload="var src; if (document.documentURI) src = document.documentURI; else if (this.getSrc) src = this.getSrc(); else src = document.location.href + ''; try {parent.preload.load(src);}catch(e) {}"
   viewBox="0 0 128 128"
   sodipodi:docname="icon-128x128.svg">
  <defs
     id="defs4" />
  <sodipodi:namedview
     id="base"
     pagecolor="#ffffff"
     bordercolor="#666666"
     borderopacity="1.0"
     inkscape:pageopacity="0.0"
     inkscape:pageshadow="2"
     inkscape:zoom="3.90625"
     inkscape:cx="64"
     inkscape:cy="80.305052"
     inkscape:document-units="px"
     inkscape:current-layer="layer1"
     showgrid="true"
     inkscape:window-width="1280"
     inkscape:window-height="705"
     inkscape:window-x="-8"
     inkscape:window-y="-8"
     inkscape:window-maximized="1">
    <inkscape:grid
       type="xygrid"
       id="grid4483" />
  </sodipodi:namedview>
  <metadata
     id="metadata7">
    <rdf:RDF>
      <cc:Work
         rdf:about="">
        <dc:format>image/svg+xml</dc:format>
        <dc:type
           rdf:resource="http://purl.org/dc/dcmitype/StillImage" />
        <dc:title></dc:title>
      </cc:Work>
    </rdf:RDF>
  </metadata>
  <g
     inkscape:label="Layer 1"
     inkscape:groupmode="layer"
     id="layer1"
     transform="translate(0,-924.3622)">
    <g
       id="g4470"
       transform="matrix(1.2549017,0,0,1.2549026,-0.25096605,-235.87333)">
      <rect
         inkscape:export-filename="C:\Users\Windows 8\Pictures\ias2014\text4147.png"
         inkscape:export-ydpi="180"
         inkscape:export-xdpi="180"
         style="opacity:0.77999998;fill:#ffffff;fill-opacity:1;stroke:#ffffff;stroke-width:0.15851985;stroke-linecap:round;stroke-miterlimit:4;stroke-dasharray:none;stroke-dashoffset:0;stroke-opacity:1"
         id="rect4180"
         width="49.950428"
         height="50.0924"
         x="0.83533329"
         y="975.50635" />
      <rect
         inkscape:export-filename="C:\Users\Windows 8\Pictures\ias2014\text4147.png"
         inkscape:export-ydpi="180"
         inkscape:export-xdpi="180"
         y="925.56219"
         x="1.1999992"
         height="100"
         width="100"
         id="rect4132"
         style="fill:#ffffff;fill-opacity:1;stroke:#d40000;stroke-width:2;stroke-linecap:round;stroke-miterlimit:4;stroke-dasharray:none;stroke-dashoffset:0;stroke-opacity:1" />
      <rect
         inkscape:export-filename="C:\Users\Windows 8\Pictures\ias2014\text4147.png"
         inkscape:export-ydpi="180"
         inkscape:export-xdpi="180"
         y="925.45477"
         x="1.2632011"
         height="50.0924"
         width="49.950428"
         id="rect4062"
         style="opacity:1;fill:#d40000;fill-opacity:1;stroke:none;stroke-width:0.15851985;stroke-linecap:round;stroke-miterlimit:4;stroke-dasharray:none;stroke-dashoffset:0;stroke-opacity:1" />
      <rect
         inkscape:export-filename="C:\Users\Windows 8\Pictures\ias2014\text4147.png"
         inkscape:export-ydpi="180"
         inkscape:export-xdpi="180"
         transform="matrix(0,1,-1,0,0,0)"
         style="opacity:1;fill:#d40000;fill-opacity:1;stroke:none;stroke-width:0.15851985;stroke-linecap:round;stroke-miterlimit:4;stroke-dasharray:none;stroke-dashoffset:0;stroke-opacity:1"
         id="use4106"
         width="49.950428"
         height="50.0924"
         x="975.52576"
         y="-101.28461" />
      <g
         inkscape:export-filename="C:\Users\Windows 8\Pictures\ias2014\text4147.png"
         inkscape:export-ydpi="180"
         inkscape:export-xdpi="180"
         transform="matrix(0.85552394,0,0,0.85552394,-208.66014,432.04565)"
         id="text4081"
         style="font-style:normal;font-variant:normal;font-weight:normal;font-stretch:normal;font-size:45px;line-height:125%;font-family:Arial;-inkscape-font-specification:'Arial, Normal';text-align:start;letter-spacing:0px;word-spacing:0px;writing-mode:lr-tb;text-anchor:start;fill:#ffffff;fill-opacity:1;stroke:none">
        <path
           style="fill:#ffffff"
           inkscape:connector-curvature="0"
           id="path4086"
           d="m 252.08206,604.78457 3.1295,-9.66063 q 10.81724,3.80984 15.71559,6.59919 -1.29262,-12.31396 -1.36067,-16.94019 l 9.86476,0 q -0.20404,6.73527 -1.56475,16.87213 7.00737,-3.53771 16.05572,-6.53113 l 3.12953,9.66063 q -8.64017,2.85741 -16.94016,3.80984 4.15,3.60574 11.70162,12.85822 l -8.16394,5.78277 q -3.94589,-5.37459 -9.32048,-14.62704 -5.03443,9.59261 -8.84427,14.62704 l -8.02786,-5.78277 q 7.89181,-9.72868 11.29344,-12.85822 -8.77622,-1.7008 -16.66803,-3.80984 z" />
      </g>
      <g
         inkscape:export-filename="C:\Users\Windows 8\Pictures\ias2014\text4147.png"
         inkscape:export-ydpi="180"
         inkscape:export-xdpi="180"
         style="font-style:normal;font-variant:normal;font-weight:normal;font-stretch:normal;font-size:45px;line-height:125%;font-family:Arial;-inkscape-font-specification:'Arial, Normal';text-align:start;letter-spacing:0px;word-spacing:0px;writing-mode:lr-tb;text-anchor:start;fill:#d40000;fill-opacity:1;stroke:none"
         id="use4110"
         transform="matrix(0.85552394,0,0,-0.85552394,-158.66014,1468.9563)">
        <path
           style="fill:#d40000"
           d="m 252.08206,604.78457 3.1295,-9.66063 q 10.81724,3.80984 15.71559,6.59919 -1.29262,-12.31396 -1.36067,-16.94019 l 9.86476,0 q -0.20404,6.73527 -1.56475,16.87213 7.00737,-3.53771 16.05572,-6.53113 l 3.12953,9.66063 q -8.64017,2.85741 -16.94016,3.80984 4.15,3.60574 11.70162,12.85822 l -8.16394,5.78277 q -3.94589,-5.37459 -9.32048,-14.62704 -5.03443,9.59261 -8.84427,14.62704 l -8.02786,-5.78277 q 7.89181,-9.72868 11.29344,-12.85822 -8.77622,-1.7008 -16.66803,-3.80984 z"
           id="path4120"
           inkscape:connector-curvature="0" />
      </g>
      <use
         inkscape:export-filename="C:\Users\Windows 8\Pictures\ias2014\text4147.png"
         inkscape:export-ydpi="180"
         inkscape:export-xdpi="180"
         height="100%"
         width="100%"
         transform="matrix(1,0,0,-1,50,1951.0019)"
         id="use4122"
         xlink:href="#text4081"
         y="0"
         x="0" />
      <g
         transform="matrix(0.85552394,0,0,0.85552394,-209.08801,482.09712)"
         id="use4124"
         style="font-style:normal;font-variant:normal;font-weight:normal;font-stretch:normal;font-size:45px;line-height:125%;font-family:Arial;-inkscape-font-specification:'Arial, Normal';text-align:start;letter-spacing:0px;word-spacing:0px;writing-mode:lr-tb;text-anchor:start;fill:#d40000;fill-opacity:1;stroke:none"
         inkscape:export-xdpi="180"
         inkscape:export-ydpi="180"
         inkscape:export-filename="C:\Users\Windows 8\Pictures\ias2014\text4147.png">
        <path
           inkscape:connector-curvature="0"
           id="path38"
           d="m 252.08206,604.78457 3.1295,-9.66063 q 10.81724,3.80984 15.71559,6.59919 -1.29262,-12.31396 -1.36067,-16.94019 l 9.86476,0 q -0.20404,6.73527 -1.56475,16.87213 7.00737,-3.53771 16.05572,-6.53113 l 3.12953,9.66063 q -8.64017,2.85741 -16.94016,3.80984 4.15,3.60574 11.70162,12.85822 l -8.16394,5.78277 q -3.94589,-5.37459 -9.32048,-14.62704 -5.03443,9.59261 -8.84427,14.62704 l -8.02786,-5.78277 q 7.89181,-9.72868 11.29344,-12.85822 -8.77622,-1.7008 -16.66803,-3.80984 z"
           style="fill:#d40000" />
      </g>
    </g>
  </g>
</svg>
